<?xml version="1.0" encoding="iso-8859-1"?>
<!-- Generator: Adobe Illustrator 16.0.0, SVG Export Plug-In . SVG Version: 6.00 Build 0)  -->
<!DOCTYPE svg PUBLIC "-//W3C//DTD SVG 1.1//EN" "http://www.w3.org/Graphics/SVG/1.1/DTD/svg11.dtd">
<svg version="1.1" id="Capa_1" xmlns="http://www.w3.org/2000/svg" xmlns:xlink="http://www.w3.org/1999/xlink" x="0px" y="0px"
	 width="478.2px" height="478.2px" viewBox="0 0 478.2 478.2" style="enable-background:new 0 0 478.2 478.2;" xml:space="preserve"
	>
<g>
	<path d="M239.1,286.9c-26.8,0-47.8,21-47.8,47.8s21,47.8,47.8,47.8c26.801,0,47.801-21,47.801-47.8S265.8,286.9,239.1,286.9z
		 M239.1,363.4c-15.3,0-28.7-13.4-28.7-28.7s13.4-28.7,28.7-28.7c15.301,0,28.7,13.4,28.7,28.7S254.4,363.4,239.1,363.4z
		 M189.3,149.2l-19.1,13.4l19.1,13.3l-9.5,15.4L153,174l-26.8,17.3l-9.5-15.4l19.1-13.3l-19.1-13.4l9.5-15.3l26.8,17.2l26.8-17.2
		L189.3,149.2z M361.5,149.2l-19.2,13.4l19.2,13.3l-9.6,15.4L325.1,174L298.4,191.3l-9.601-15.4l19.101-13.3L288.8,149.2l9.601-15.3
		l26.699,17.2l26.801-17.2L361.5,149.2z M239.1,0C107.1,0,0,107.1,0,239.1C0,371.1,107.1,478.2,239.1,478.2
		C371.1,478.2,478.2,371.1,478.2,239.1C478.2,107.1,371,0,239.1,0z M239.1,459C116.7,459,19.2,361.5,19.2,239.1
		C19.2,116.7,116.7,19.2,239.1,19.2C361.5,19.2,459,116.7,459,239.1C459,361.5,361.5,459,239.1,459z"/>
</g>
<g>
</g>
<g>
</g>
<g>
</g>
<g>
</g>
<g>
</g>
<g>
</g>
<g>
</g>
<g>
</g>
<g>
</g>
<g>
</g>
<g>
</g>
<g>
</g>
<g>
</g>
<g>
</g>
<g>
</g>
</svg>
