<?xml version="1.0" encoding="iso-8859-1"?>
<!-- Generator: Adobe Illustrator 16.0.0, SVG Export Plug-In . SVG Version: 6.00 Build 0)  -->
<!DOCTYPE svg PUBLIC "-//W3C//DTD SVG 1.1//EN" "http://www.w3.org/Graphics/SVG/1.1/DTD/svg11.dtd">
<svg version="1.1" id="Capa_1" xmlns="http://www.w3.org/2000/svg" xmlns:xlink="http://www.w3.org/1999/xlink" x="0px" y="0px"
	 width="478.2px" height="478.2px" viewBox="0 0 478.2 478.2" style="enable-background:new 0 0 478.2 478.2;" xml:space="preserve"
	>
<g>
	<path d="M179.4,133.2l10.7,15.8l-63.4,42.8L116,176L179.4,133.2z M286.9,334.7c0,26.8-21,47.8-47.801,47.8
		c-26.8,0-47.8-21-47.8-47.8s21-47.8,47.8-47.8C265.8,286.9,286.9,307.9,286.9,334.7z M267.8,334.7c0-15.3-13.399-28.7-28.7-28.7
		c-15.3,0-28.7,13.4-28.7,28.7s13.4,28.7,28.7,28.7C254.4,363.4,267.8,350,267.8,334.7z M288.1,149l63.4,42.8l10.7-15.8l-63.4-42.8
		L288.1,149z M478.2,239.1C478.2,371.1,371.1,478.2,239.1,478.2C107.1,478.2,0,371.1,0,239.1C0,107.1,107.1,0,239.1,0
		C371,0,478.2,107.1,478.2,239.1z M459,239.1C459,116.7,361.5,19.2,239.1,19.2C116.7,19.2,19.2,116.7,19.2,239.1
		C19.2,361.5,116.7,459,239.1,459C361.5,459,459,361.5,459,239.1z"/>
</g>
<g>
</g>
<g>
</g>
<g>
</g>
<g>
</g>
<g>
</g>
<g>
</g>
<g>
</g>
<g>
</g>
<g>
</g>
<g>
</g>
<g>
</g>
<g>
</g>
<g>
</g>
<g>
</g>
<g>
</g>
</svg>
