<?xml version="1.0" encoding="iso-8859-1"?>
<!-- Generator: Adobe Illustrator 16.0.0, SVG Export Plug-In . SVG Version: 6.00 Build 0)  -->
<!DOCTYPE svg PUBLIC "-//W3C//DTD SVG 1.1//EN" "http://www.w3.org/Graphics/SVG/1.1/DTD/svg11.dtd">
<svg version="1.1" id="Capa_1" xmlns="http://www.w3.org/2000/svg" xmlns:xlink="http://www.w3.org/1999/xlink" x="0px" y="0px"
	 width="478.2px" height="478.2px" viewBox="0 0 478.2 478.2" style="enable-background:new 0 0 478.2 478.2;" xml:space="preserve"
	>
<g>
	<path d="M210.4,172.1c0-32.5-24.9-57.4-57.4-57.4s-57.4,24.9-57.4,57.4s24.9,57.4,57.4,57.4S210.4,204.6,210.4,172.1z M153,210.4
		c-21,0-38.2-17.2-38.2-38.2S132,134,153,134s38.2,17.2,38.2,38.2S174,210.4,153,210.4z M191.3,325.1H286.9V344.2H191.3V325.1z
		 M172.1,172.1c0,10.5-8.6,19.1-19.1,19.1s-19.1-8.6-19.1-19.1S142.5,153,153,153S172.1,161.6,172.1,172.1z M239.1,0
		C107.1,0,0,107.1,0,239.1C0,371.1,107.1,478.2,239.1,478.2C371.1,478.2,478.2,371.1,478.2,239.1C478.2,107.1,371,0,239.1,0z
		 M239.1,459C116.7,459,19.2,361.5,19.2,239.1C19.2,116.7,116.7,19.2,239.1,19.2C361.5,19.2,459,116.7,459,239.1
		C459,361.5,361.5,459,239.1,459z M325.1,114.7c-32.5,0-57.399,24.9-57.399,57.4s24.899,57.4,57.399,57.4s57.4-24.9,57.4-57.4
		S357.6,114.7,325.1,114.7z M325.1,210.4c-21,0-38.199-17.2-38.199-38.2S304.1,134,325.1,134s38.2,17.2,38.2,38.2
		S346.2,210.4,325.1,210.4z M344.2,172.1c0,10.5-8.601,19.1-19.101,19.1s-19.1-8.6-19.1-19.1s8.6-19.1,19.1-19.1
		S344.2,161.6,344.2,172.1z"/>
</g>
<g>
</g>
<g>
</g>
<g>
</g>
<g>
</g>
<g>
</g>
<g>
</g>
<g>
</g>
<g>
</g>
<g>
</g>
<g>
</g>
<g>
</g>
<g>
</g>
<g>
</g>
<g>
</g>
<g>
</g>
</svg>
