<?xml version="1.0" encoding="iso-8859-1"?>
<!-- Generator: Adobe Illustrator 16.0.0, SVG Export Plug-In . SVG Version: 6.00 Build 0)  -->
<!DOCTYPE svg PUBLIC "-//W3C//DTD SVG 1.1//EN" "http://www.w3.org/Graphics/SVG/1.1/DTD/svg11.dtd">
<svg version="1.1" id="Capa_1" xmlns="http://www.w3.org/2000/svg" xmlns:xlink="http://www.w3.org/1999/xlink" x="0px" y="0px"
	 width="478.2px" height="478.2px" viewBox="0 0 478.2 478.2" style="enable-background:new 0 0 478.2 478.2;" xml:space="preserve"
	>
<g>
	<path d="M239.1,0C107.1,0,0,107.1,0,239.1C0,371.1,107.1,478.2,239.1,478.2C371.1,478.2,478.2,371.1,478.2,239.1
		C478.2,107.1,371,0,239.1,0z M239.1,459C116.7,459,19.2,361.5,19.2,239.1C19.2,116.7,116.7,19.2,239.1,19.2
		C361.5,19.2,459,116.7,459,239.1C459,361.5,361.5,459,239.1,459z M133.9,172.1c0-10.5,8.6-19.1,19.1-19.1s19.1,8.6,19.1,19.1
		s-8.6,19.1-19.1,19.1S133.9,182.6,133.9,172.1z M306,172.1c0-10.5,8.6-19.1,19.1-19.1s19.101,8.6,19.101,19.1
		s-8.601,19.1-19.101,19.1S306,182.6,306,172.1z M277.5,296.5c19.1,0,38.2,28.7,66.9,28.7C325.3,325.2,296.6,382.6,239.2,382.6
		c-57.4,0-86.1-57.399-105.2-57.399c28.7,0,47.8-28.7,66.9-28.7s19.1,9.5,38.2,19.1C258.2,306,258.4,296.5,277.5,296.5z"/>
</g>
<g>
</g>
<g>
</g>
<g>
</g>
<g>
</g>
<g>
</g>
<g>
</g>
<g>
</g>
<g>
</g>
<g>
</g>
<g>
</g>
<g>
</g>
<g>
</g>
<g>
</g>
<g>
</g>
<g>
</g>
</svg>
