<?xml version="1.0" encoding="iso-8859-1"?>
<!-- Generator: Adobe Illustrator 16.0.0, SVG Export Plug-In . SVG Version: 6.00 Build 0)  -->
<!DOCTYPE svg PUBLIC "-//W3C//DTD SVG 1.1//EN" "http://www.w3.org/Graphics/SVG/1.1/DTD/svg11.dtd">
<svg version="1.1" id="Capa_1" xmlns="http://www.w3.org/2000/svg" xmlns:xlink="http://www.w3.org/1999/xlink" x="0px" y="0px"
	 width="478.2px" height="478.2px" viewBox="0 0 478.2 478.2" style="enable-background:new 0 0 478.2 478.2;" xml:space="preserve"
	>
<g>
	<path d="M133.9,172.1c0-10.5,8.6-19.1,19.1-19.1s19.1,8.6,19.1,19.1s-8.6,19.1-19.1,19.1S133.9,182.6,133.9,172.1z M325.1,191.2
		c10.5,0,19.101-8.6,19.101-19.1S335.6,153,325.1,153s-19.1,8.6-19.1,19.1S314.6,191.2,325.1,191.2z M478.2,239.1
		C478.2,371.1,371.1,478.2,239.1,478.2C107.1,478.2,0,371.1,0,239.1C0,107.1,107.1,0,239.1,0C371,0,478.2,107.1,478.2,239.1z
		 M459,239.1C459,116.7,361.5,19.2,239.1,19.2C116.7,19.2,19.2,116.7,19.2,239.1C19.2,361.5,116.7,459,239.1,459
		C361.5,459,459,361.5,459,239.1z M329,311.7c-26.8-13.4-23-38.2-42.1-55.5c-11.5-9.601-26.801-9.601-40.2,0
		c-1.9,1.899-5.7,3.8-7.601,7.6c-1.899-1.899-3.8-5.7-7.6-7.6c-13.4-9.601-30.6-9.601-40.2,0c-19.1,17.2-15.3,42.1-42.1,55.5
		c-19.1,9.6-51.6,7.6-70.8-15.3c0,17.199,47.8,65,99.4,63.1c36.3-1.9,55.5-24.9,63.101-40.2c7.6,15.3,26.8,38.2,63.1,40.2
		c51.6,1.9,99.4-45.9,99.4-63.1C380.6,319.4,348.1,321.3,329,311.7z"/>
</g>
<g>
</g>
<g>
</g>
<g>
</g>
<g>
</g>
<g>
</g>
<g>
</g>
<g>
</g>
<g>
</g>
<g>
</g>
<g>
</g>
<g>
</g>
<g>
</g>
<g>
</g>
<g>
</g>
<g>
</g>
</svg>
