<?xml version="1.0" encoding="iso-8859-1"?>
<!-- Generator: Adobe Illustrator 16.0.0, SVG Export Plug-In . SVG Version: 6.00 Build 0)  -->
<!DOCTYPE svg PUBLIC "-//W3C//DTD SVG 1.1//EN" "http://www.w3.org/Graphics/SVG/1.1/DTD/svg11.dtd">
<svg version="1.1" id="Capa_1" xmlns="http://www.w3.org/2000/svg" xmlns:xlink="http://www.w3.org/1999/xlink" x="0px" y="0px"
	 width="478.2px" height="478.2px" viewBox="0 0 478.2 478.2" style="enable-background:new 0 0 478.2 478.2;" xml:space="preserve"
	>
<g>
	<path d="M143.4,160.6l-40.1,40.2l-13.4-13.4l53.5-53.5l53.6,53.5l-13.4,13.4L143.4,160.6z M133.9,306v19.1
		c0,0,38.2,38.2,105.2,38.2c67,0,105.2-38.2,105.2-38.2V306c0,0-38.2,38.2-105.2,38.2C172.1,344.2,133.9,306,133.9,306z
		 M478.2,239.1C478.2,371.1,371.1,478.2,239.1,478.2C107.1,478.2,0,371.1,0,239.1C0,107.1,107.1,0,239.1,0
		C371,0,478.2,107.1,478.2,239.1z M459,239.1C459,116.7,361.5,19.2,239.1,19.2C116.7,19.2,19.2,116.7,19.2,239.1
		C19.2,361.5,116.7,459,239.1,459C361.5,459,459,361.5,459,239.1z M281.1,187.4l13.4,13.4l40.2-40.2l40.2,40.2l13.3-13.4l-53.5-53.5
		L281.1,187.4z"/>
</g>
<g>
</g>
<g>
</g>
<g>
</g>
<g>
</g>
<g>
</g>
<g>
</g>
<g>
</g>
<g>
</g>
<g>
</g>
<g>
</g>
<g>
</g>
<g>
</g>
<g>
</g>
<g>
</g>
<g>
</g>
</svg>
