<?xml version="1.0" encoding="iso-8859-1"?>
<!-- Generator: Adobe Illustrator 16.0.0, SVG Export Plug-In . SVG Version: 6.00 Build 0)  -->
<!DOCTYPE svg PUBLIC "-//W3C//DTD SVG 1.1//EN" "http://www.w3.org/Graphics/SVG/1.1/DTD/svg11.dtd">
<svg version="1.1" id="Capa_1" xmlns="http://www.w3.org/2000/svg" xmlns:xlink="http://www.w3.org/1999/xlink" x="0px" y="0px"
	 width="478.2px" height="478.2px" viewBox="0 0 478.2 478.2" style="enable-background:new 0 0 478.2 478.2;" xml:space="preserve"
	>
<g>
	<path d="M305.9,306.1H325c0,0,0,9.5,0,19.101c0,19.1-19.1,38.2-38.2,38.2h-66.9H153V344.3h66.9h57.4c15.3,0,28.7-13.399,28.7-28.7
		h-0.1V306.1z M191.3,191.3c11.5,0,19.1-7.6,19.1-19.1s-7.6-19.1-19.1-19.1h-57.4v19.1h38.2C172.1,183.6,179.8,191.3,191.3,191.3z
		 M325.1,153H267.7v19.1h38.2c0,11.5,7.6,19.1,19.1,19.1s19.1-7.6,19.1-19.1S336.6,153,325.1,153z M478.2,239.1
		C478.2,371.1,371.1,478.2,239.1,478.2C107.1,478.2,0,371.1,0,239.1C0,107.1,107.1,0,239.1,0C371,0,478.2,107.1,478.2,239.1z
		 M459,239.1C459,116.7,361.5,19.2,239.1,19.2C116.7,19.2,19.2,116.7,19.2,239.1C19.2,361.5,116.7,459,239.1,459
		C361.5,459,459,361.5,459,239.1z"/>
</g>
<g>
</g>
<g>
</g>
<g>
</g>
<g>
</g>
<g>
</g>
<g>
</g>
<g>
</g>
<g>
</g>
<g>
</g>
<g>
</g>
<g>
</g>
<g>
</g>
<g>
</g>
<g>
</g>
<g>
</g>
</svg>
