<?xml version="1.0" encoding="iso-8859-1"?>
<!-- Generator: Adobe Illustrator 16.0.0, SVG Export Plug-In . SVG Version: 6.00 Build 0)  -->
<!DOCTYPE svg PUBLIC "-//W3C//DTD SVG 1.1//EN" "http://www.w3.org/Graphics/SVG/1.1/DTD/svg11.dtd">
<svg version="1.1" id="Capa_1" xmlns="http://www.w3.org/2000/svg" xmlns:xlink="http://www.w3.org/1999/xlink" x="0px" y="0px"
	 width="478.2px" height="478.2px" viewBox="0 0 478.2 478.2" style="enable-background:new 0 0 478.2 478.2;" xml:space="preserve"
	>
<g>
	<path d="M305.9,306.1H325c0,0,0,9.5,0,19.101c0,19.1-19.1,38.2-38.2,38.2h-66.9H153V344.3h66.9h57.4c15.3,0,28.7-13.399,28.7-28.7
		h-0.1V306.1z M478.2,239.1C478.2,371.1,371.1,478.2,239.1,478.2C107.1,478.2,0,371.1,0,239.1C0,107.1,107.1,0,239.1,0
		C371,0,478.2,107.1,478.2,239.1z M55.5,118.5c45.9-5.7,124.3-3.8,179.8,9.6c1.9,0,1.9,0,3.8,0c1.9,0,1.9,0,3.801,0
		c55.5-13.4,133.899-15.3,179.8-9.6C384.5,59.3,315.6,19.1,239.1,19.1C162.6,19.1,93.7,59.3,55.5,118.5z M453.5,239.1
		c0-34.399-7.6-66.899-21-95.6c-9.6,3.9-13.4,11.5-13.4,11.5s-1.899,7.6-9.6,36.3c-7.7,28.7-24.9,32.5-24.9,32.5
		s-22.899,5.7-47.8,5.7c-24.899,0-40.2,0-57.399-7.6c-15.4-7.7-23-28.7-23-28.7s-7.7-17.2-13.4-34.4c0-3.8-3.8-3.8-5.7-5.7
		c-1.899,1.9-5.7,3.8-5.7,5.7c-5.8,17.2-13.399,34.4-13.399,34.4s-5.8,21.1-23,28.7c-17.2,5.7-32.5,7.6-57.4,7.6
		c-24.9,0-47.8-5.7-47.8-5.7s-17.3-3.8-24.9-32.5C57.4,162.6,53.6,155,53.6,155s-3.8-7.7-13.4-11.5c-13.3,28.7-21,61.2-21,95.6
		C19.2,361.5,116.7,459,239.1,459C361.5,459,459,361.5,453.5,239.1z"/>
</g>
<g>
</g>
<g>
</g>
<g>
</g>
<g>
</g>
<g>
</g>
<g>
</g>
<g>
</g>
<g>
</g>
<g>
</g>
<g>
</g>
<g>
</g>
<g>
</g>
<g>
</g>
<g>
</g>
<g>
</g>
</svg>
