<?xml version="1.0" encoding="iso-8859-1"?>
<!-- Generator: Adobe Illustrator 16.0.0, SVG Export Plug-In . SVG Version: 6.00 Build 0)  -->
<!DOCTYPE svg PUBLIC "-//W3C//DTD SVG 1.1//EN" "http://www.w3.org/Graphics/SVG/1.1/DTD/svg11.dtd">
<svg version="1.1" id="Capa_1" xmlns="http://www.w3.org/2000/svg" xmlns:xlink="http://www.w3.org/1999/xlink" x="0px" y="0px"
	 width="478.201px" height="478.2px" viewBox="0 0 478.201 478.2" style="enable-background:new 0 0 478.201 478.2;"
	 xml:space="preserve">
<g>
	<path d="M153.05,325.2h172.1v19.1h-172.1V325.2z M190.15,176l-63.4-42.8l-10.7,15.9l63.4,42.8L190.15,176z M478.15,239.1
		c0,132-107.1,239.101-239.1,239.101S0.05,371,0.05,239.1C0.05,107.2,107.15,0,239.15,0C371.15,0,478.15,107.1,478.15,239.1z
		 M459.05,239.1c0-122.399-97.5-219.899-219.9-219.899c-122.399,0-220,97.5-220,219.899c0,122.4,97.5,219.9,219.9,219.9
		C361.451,459,459.05,361.5,459.05,239.1z M288.15,176l10.7,15.9l63.4-42.8l-10.7-15.8L288.15,176z"/>
</g>
<g>
</g>
<g>
</g>
<g>
</g>
<g>
</g>
<g>
</g>
<g>
</g>
<g>
</g>
<g>
</g>
<g>
</g>
<g>
</g>
<g>
</g>
<g>
</g>
<g>
</g>
<g>
</g>
<g>
</g>
</svg>
