<?xml version="1.0" encoding="iso-8859-1"?>
<!-- Generator: Adobe Illustrator 16.0.0, SVG Export Plug-In . SVG Version: 6.00 Build 0)  -->
<!DOCTYPE svg PUBLIC "-//W3C//DTD SVG 1.1//EN" "http://www.w3.org/Graphics/SVG/1.1/DTD/svg11.dtd">
<svg version="1.1" id="Capa_1" xmlns="http://www.w3.org/2000/svg" xmlns:xlink="http://www.w3.org/1999/xlink" x="0px" y="0px"
	 width="478.2px" height="478.2px" viewBox="0 0 478.2 478.2" style="enable-background:new 0 0 478.2 478.2;" xml:space="preserve"
	>
<g>
	<path d="M239.1,286.9c-26.8,0-47.8,21-47.8,47.8s21,47.8,47.8,47.8c26.801,0,47.801-21,47.801-47.8S265.8,286.9,239.1,286.9z
		 M239.1,363.4c-15.3,0-28.7-13.4-28.7-28.7s13.4-28.7,28.7-28.7c15.301,0,28.7,13.4,28.7,28.7S254.4,363.4,239.1,363.4z M325.1,153
		c10.5,0,19.101,8.6,19.101,19.1s-8.601,19.1-19.101,19.1s-19.1-8.6-19.1-19.1S314.6,153,325.1,153z M153,153
		c10.5,0,19.1,8.6,19.1,19.1s-8.6,19.1-19.1,19.1s-19.1-8.6-19.1-19.1S142.5,153,153,153z M239.1,0C107.1,0,0,107.1,0,239.1
		C0,371.1,107.1,478.2,239.1,478.2C371.1,478.2,478.2,371.1,478.2,239.1C478.2,107.1,371,0,239.1,0z M239.1,19.1
		c76.5,0,145.4,40.2,183.601,99.4l-45.9,28.7c-9.6-19.1-28.7-32.5-51.6-32.5c-24.9,0-45.9,15.3-53.5,38.2h-63.2
		c-7.6-22.9-28.7-38.2-53.6-38.2c-22.9,0-42.1,13.4-51.6,32.5l-45.9-28.7C93.7,59.3,162.6,19.1,239.1,19.1z M363.4,172.1
		c0,21-17.2,38.2-38.2,38.2S287,193.1,287,172.1s17.2-38.2,38.2-38.2S363.4,151.1,363.4,172.1z M191.3,172.1
		c0,21-17.2,38.2-38.2,38.2s-38.2-17.2-38.2-38.2s17.2-38.2,38.2-38.2S191.3,151.1,191.3,172.1z M239.1,459
		C116.7,459,19.2,361.5,19.2,239.1c0-38.2,9.6-72.7,24.9-103.3l51.6,30.6c0,1.9,0,3.8,0,5.7c0,32.5,24.9,57.4,57.4,57.4
		s57.4-24.9,57.4-57.4h57.4c0,32.5,24.899,57.4,57.399,57.4s57.4-24.9,57.4-57.4c0-1.9,0-3.8,0-5.7l51.6-30.6
		c17.2,30.6,24.9,66.9,24.9,103.3C459,361.5,361.5,459,239.1,459z"/>
</g>
<g>
</g>
<g>
</g>
<g>
</g>
<g>
</g>
<g>
</g>
<g>
</g>
<g>
</g>
<g>
</g>
<g>
</g>
<g>
</g>
<g>
</g>
<g>
</g>
<g>
</g>
<g>
</g>
<g>
</g>
</svg>
