<?xml version="1.0" encoding="iso-8859-1"?>
<!-- Generator: Adobe Illustrator 16.0.0, SVG Export Plug-In . SVG Version: 6.00 Build 0)  -->
<!DOCTYPE svg PUBLIC "-//W3C//DTD SVG 1.1//EN" "http://www.w3.org/Graphics/SVG/1.1/DTD/svg11.dtd">
<svg version="1.1" id="Capa_1" xmlns="http://www.w3.org/2000/svg" xmlns:xlink="http://www.w3.org/1999/xlink" x="0px" y="0px"
	 width="478.2px" height="478.2px" viewBox="0 0 478.2 478.2" style="enable-background:new 0 0 478.2 478.2;" xml:space="preserve"
	>
<g>
	<path d="M210.4,191.2h-76.5v-19.1h76.5V191.2z M325.1,153c-10.5,0-19.1,8.6-19.1,19.1s8.6,19.1,19.1,19.1s19.101-8.6,19.101-19.1
		S335.6,153,325.1,153z M305.9,315.6L305.9,315.6C306,330.9,292.6,344.3,277.3,344.3h-57.4H153V363.4h66.9h66.9
		c19.101,0,38.2-19.101,38.2-38.2c0-9.601,0-19.101,0-19.101h-19.1V315.6z M478.2,239.1C478.2,371.1,371.1,478.2,239.1,478.2
		C107.1,478.2,0,371.1,0,239.1C0,107.1,107.1,0,239.1,0C371,0,478.2,107.1,478.2,239.1z M459,239.1C459,116.7,361.5,19.2,239.1,19.2
		C116.7,19.2,19.2,116.7,19.2,239.1C19.2,361.5,116.7,459,239.1,459C361.5,459,459,361.5,459,239.1z"/>
</g>
<g>
</g>
<g>
</g>
<g>
</g>
<g>
</g>
<g>
</g>
<g>
</g>
<g>
</g>
<g>
</g>
<g>
</g>
<g>
</g>
<g>
</g>
<g>
</g>
<g>
</g>
<g>
</g>
<g>
</g>
</svg>
